<svg width="100%" height="100%" viewBox="0 0 140 30" xmlns="http://www.w3.org/2000/svg" style="fill-rule:evenodd;clip-rule:evenodd;">
    <g transform="matrix(0.915597,0.0654885,-0.0654885,0.915597,2.38742,-0.345224)" class="accent">
        <path d="M41.934,22.58C41.934,22.58 42.017,24.283 41.034,25.72C38.547,29.36 32.938,29.167 30.715,25.356C30.31,24.655 30.063,23.886 29.798,22.478C29.322,19.893 28.828,18.924 27.152,17.272C25.582,15.747 24.189,15.024 21.667,14.455C19.144,13.886 17.126,13.035 16.12,11.114C15.644,10.198 15.54,9.562 15.469,8.46C15.444,7.919 15.683,6.656 15.851,5.935C15.914,5.661 16.18,5.706 16.275,5.865C16.909,6.937 17.55,8.438 18.104,9.649C18.369,9.72 22.849,10.354 22.849,10.354C22.849,10.354 25.018,6.272 25.018,6.201C25.018,6.154 23.693,4.069 23.118,2.932C23.041,2.779 23.179,2.564 23.356,2.607C24.086,2.784 25.336,3.252 25.989,3.809C27.065,4.72 27.417,5.614 27.999,8.005C28.634,10.593 29.339,12.1 30.609,13.494C31.774,14.797 33.414,15.703 35.372,16.171C38.212,16.836 39.27,17.356 40.54,18.697C41.457,19.676 41.951,21.053 41.934,22.58ZM34.829,18.112L39.209,19.286L40.383,23.666L37.176,26.872L32.796,25.698L31.623,21.319L34.829,18.112Z"/>
    </g>
    <g transform="matrix(1,0,0,1,0.248541,0)" fill-rule="nonzero">
        <g transform="matrix(1.00203,0,0,0.93916,58.2194,6.09539)" class="accent">
            <path d="M7.201,-3.292L14.399,-3.292L14.399,-1.604L9.083,-1.604L9.083,1.81L14.306,1.81L14.306,3.454L9.083,3.454L9.083,6.899L14.399,6.899L14.399,8.588L7.201,8.588L7.201,-3.292Z"/>
        </g>
        <g transform="matrix(1.00203,0,0,0.93916,60.3949,6.09539)" class="accent">
            <path d="M30.552,-3.292L30.552,8.588L28.665,8.588L28.665,0.499L28.755,-1.021L28.392,0.683L25.795,7.828L23.93,7.828L21.336,0.683L20.979,-1.021L21.069,0.499L21.069,8.588L19.176,8.588L19.176,-3.292L21.757,-3.292L24.735,5.604L24.864,6.312L24.994,5.604L27.982,-3.292L30.552,-3.292Z"/>
        </g>
        <g transform="matrix(1.00203,0,0,0.93916,64.0671,6.09539)" class="accent">
            <path d="M36.29,-1.604L33.199,-1.604L33.199,-3.292L41.277,-3.292L41.277,-1.604L38.187,-1.604L38.187,8.588L36.29,8.588L36.29,-1.604Z"/>
        </g>
        <g transform="matrix(1.00203,0,0,0.93916,67.7056,6.09539)" class="accent">
            <path d="M45.271,-3.292L52.469,-3.292L52.469,-1.604L47.153,-1.604L47.153,1.81L52.376,1.81L52.376,3.454L47.153,3.454L47.153,6.899L52.469,6.899L52.469,8.588L45.271,8.588L45.271,-3.292Z"/>
        </g>
        <g transform="matrix(1.00203,0,0,0.93916,71.1389,6.09539)" class="accent">
            <path d="M57.286,-3.292L64.484,-3.292L64.484,-1.604L59.168,-1.604L59.168,1.81L64.391,1.81L64.391,3.454L59.168,3.454L59.168,6.899L64.484,6.899L64.484,8.588L57.286,8.588L57.286,-3.292Z"/>
        </g>
        <g transform="matrix(0.956545,0,0,0.93916,24.657,6.09539)" fill="currentColor">
            <path d="M12.5,2.08L18.515,2.08L18.515,2.757C18.515,3.594 18.37,4.378 18.082,5.108C17.793,5.839 17.387,6.482 16.862,7.036C16.338,7.591 15.717,8.024 15.001,8.336C14.285,8.648 13.498,8.804 12.639,8.804C11.76,8.804 10.957,8.644 10.228,8.323C9.499,8.003 8.868,7.56 8.337,6.994C7.806,6.428 7.396,5.774 7.106,5.03C6.817,4.286 6.672,3.489 6.672,2.639C6.672,1.794 6.817,1 7.106,0.257C7.396,-0.487 7.806,-1.141 8.337,-1.706C8.868,-2.27 9.499,-2.712 10.228,-3.03C10.957,-3.349 11.76,-3.508 12.639,-3.508C13.277,-3.508 13.853,-3.438 14.367,-3.298C14.881,-3.158 15.338,-2.967 15.739,-2.726C16.14,-2.484 16.491,-2.213 16.791,-1.912C17.092,-1.61 17.348,-1.3 17.559,-0.98L15.811,-0.096C15.486,-0.558 15.063,-0.944 14.541,-1.255C14.019,-1.566 13.385,-1.721 12.639,-1.721C12.056,-1.721 11.52,-1.606 11.03,-1.377C10.541,-1.147 10.117,-0.831 9.76,-0.43C9.403,-0.029 9.127,0.435 8.932,0.961C8.737,1.487 8.639,2.046 8.639,2.639C8.639,3.234 8.737,3.794 8.932,4.321C9.127,4.847 9.403,5.312 9.76,5.716C10.117,6.121 10.541,6.437 11.03,6.666C11.52,6.894 12.056,7.009 12.639,7.009C13.18,7.009 13.675,6.922 14.124,6.747C14.573,6.573 14.962,6.33 15.293,6.017C15.624,5.705 15.885,5.34 16.077,4.923C16.269,4.505 16.378,4.054 16.405,3.571L12.5,3.571L12.5,2.08Z"/>
        </g>
        <g transform="matrix(0.956545,0,0,0.93916,26.8886,6.09539)" fill="currentColor">
            <path d="M24.038,2.639C24.038,3.457 24.209,4.197 24.551,4.857C24.893,5.518 25.365,6.041 25.966,6.428C26.567,6.815 27.258,7.009 28.038,7.009C28.825,7.009 29.518,6.815 30.117,6.428C30.717,6.041 31.186,5.518 31.525,4.857C31.863,4.197 32.033,3.457 32.033,2.639C32.033,1.82 31.863,1.082 31.525,0.425C31.186,-0.233 30.717,-0.755 30.117,-1.141C29.518,-1.528 28.825,-1.721 28.038,-1.721C27.258,-1.721 26.567,-1.528 25.966,-1.141C25.365,-0.755 24.893,-0.233 24.551,0.425C24.209,1.082 24.038,1.82 24.038,2.639ZM22.071,2.639C22.071,1.775 22.221,0.969 22.522,0.222C22.822,-0.525 23.242,-1.177 23.781,-1.735C24.321,-2.293 24.954,-2.728 25.68,-3.04C26.406,-3.352 27.192,-3.508 28.038,-3.508C28.896,-3.508 29.686,-3.352 30.409,-3.04C31.132,-2.728 31.762,-2.293 32.3,-1.735C32.839,-1.177 33.256,-0.525 33.551,0.222C33.847,0.969 33.995,1.775 33.995,2.639C33.995,3.509 33.849,4.317 33.558,5.064C33.266,5.811 32.852,6.465 32.317,7.026C31.782,7.587 31.152,8.024 30.427,8.336C29.703,8.648 28.907,8.804 28.038,8.804C27.162,8.804 26.36,8.648 25.631,8.336C24.902,8.024 24.272,7.587 23.74,7.026C23.209,6.465 22.798,5.811 22.507,5.064C22.217,4.317 22.071,3.509 22.071,2.639Z"/>
        </g>
        <g transform="matrix(1.08759,0,0,0.93916,-4.65997,6.09539)" fill="currentColor">
            <path d="M14.29,3.474L9.083,3.474L9.083,8.588L7.201,8.588L7.201,-3.292L9.083,-3.292L9.083,1.789L14.29,1.789L14.29,-3.292L16.163,-3.292L16.163,8.588L14.29,8.588L14.29,3.474Z"/>
        </g>
    </g>
    <g class="accent" fill-rule="nonzero">
        <g transform="matrix(1,0,0,1,10.386,3.87391)">
            <path d="M74.53,15.554L76.599,15.554C77.022,15.554 77.404,15.623 77.745,15.762C78.086,15.902 78.358,16.117 78.56,16.408C78.762,16.699 78.863,17.073 78.863,17.531C78.863,17.986 78.762,18.366 78.56,18.671C78.358,18.976 78.086,19.205 77.745,19.358C77.404,19.511 77.022,19.588 76.599,19.588L75.6,19.588L75.6,22.154L74.53,22.154L74.53,15.554ZM75.6,18.729L76.304,18.729C76.566,18.729 76.805,18.691 77.019,18.616C77.234,18.541 77.405,18.417 77.533,18.244C77.661,18.072 77.725,17.841 77.725,17.553C77.725,17.262 77.661,17.034 77.533,16.869C77.405,16.704 77.234,16.586 77.019,16.517C76.805,16.447 76.566,16.412 76.304,16.412L75.6,16.412L75.6,18.729Z"/>
        </g>
        <g transform="matrix(1,0,0,1,10.3339,3.87391)">
            <path d="M81.814,18.849C81.814,19.303 81.911,19.714 82.105,20.081C82.298,20.448 82.565,20.739 82.905,20.954C83.245,21.169 83.636,21.276 84.078,21.276C84.523,21.276 84.915,21.169 85.254,20.954C85.593,20.739 85.859,20.448 86.05,20.081C86.242,19.714 86.338,19.303 86.338,18.849C86.338,18.394 86.242,17.984 86.05,17.619C85.859,17.253 85.593,16.963 85.254,16.749C84.915,16.534 84.523,16.426 84.078,16.426C83.636,16.426 83.245,16.534 82.905,16.749C82.565,16.963 82.298,17.253 82.105,17.619C81.911,17.984 81.814,18.394 81.814,18.849ZM80.701,18.849C80.701,18.369 80.786,17.921 80.956,17.506C81.126,17.091 81.364,16.729 81.669,16.419C81.974,16.109 82.332,15.867 82.743,15.694C83.154,15.52 83.599,15.434 84.078,15.434C84.563,15.434 85.01,15.52 85.419,15.694C85.828,15.867 86.185,16.109 86.489,16.419C86.794,16.729 87.03,17.091 87.197,17.506C87.365,17.921 87.448,18.369 87.448,18.849C87.448,19.332 87.366,19.781 87.201,20.196C87.036,20.611 86.802,20.974 86.499,21.286C86.196,21.598 85.839,21.84 85.43,22.014C85.02,22.187 84.569,22.274 84.078,22.274C83.582,22.274 83.128,22.187 82.715,22.014C82.303,21.84 81.946,21.598 81.646,21.286C81.345,20.974 81.113,20.611 80.948,20.196C80.784,19.781 80.701,19.332 80.701,18.849Z"/>
        </g>
        <g transform="matrix(1,0,0,1,10.117,3.87391)">
            <path d="M95.915,22.154L94.594,22.154L93.257,16.858L93.456,16.858L92.117,22.154L90.791,22.154L89.342,15.554L90.566,15.554L91.522,20.777L91.508,20.777L92.905,15.554L93.806,15.554L95.206,20.777L95.189,20.777L96.148,15.554L97.372,15.554L95.915,22.154Z"/>
        </g>
        <g transform="matrix(1,0,0,1,11.3254,3.87391)">
            <path d="M98.845,15.554L102.918,15.554L102.918,16.492L99.91,16.492L99.91,18.388L102.865,18.388L102.865,19.301L99.91,19.301L99.91,21.215L102.918,21.215L102.918,22.154L98.845,22.154L98.845,15.554Z"/>
        </g>
        <g transform="matrix(1,0,0,1,11.4978,3.87391)">
            <path d="M105.631,15.554L108.102,15.554C108.472,15.554 108.807,15.63 109.108,15.781C109.408,15.933 109.647,16.154 109.824,16.444C110.002,16.734 110.09,17.085 110.09,17.497C110.09,17.908 110.01,18.246 109.85,18.512C109.69,18.779 109.497,18.979 109.272,19.112C109.048,19.246 108.839,19.321 108.647,19.338L110.303,22.154L109.093,22.154L107.566,19.417L106.702,19.417L106.702,22.154L105.631,22.154L105.631,15.554ZM106.702,18.658L107.722,18.658C108.082,18.658 108.383,18.57 108.626,18.394C108.87,18.217 108.991,17.929 108.991,17.527C108.991,17.125 108.871,16.839 108.63,16.668C108.389,16.497 108.088,16.412 107.729,16.412L106.702,16.412L106.702,18.658Z"/>
        </g>
        <g transform="matrix(1,0,0,1,11.9105,3.87391)">
            <path d="M112.498,15.554L116.571,15.554L116.571,16.492L113.563,16.492L113.563,18.388L116.518,18.388L116.518,19.301L113.563,19.301L113.563,21.215L116.571,21.215L116.571,22.154L112.498,22.154L112.498,15.554Z"/>
        </g>
        <g transform="matrix(1,0,0,1,11.9105,3.87391)">
            <path d="M119.284,15.554L121.004,15.554C121.72,15.554 122.311,15.694 122.776,15.976C123.241,16.258 123.587,16.647 123.814,17.144C124.041,17.64 124.155,18.209 124.155,18.849C124.155,19.492 124.042,20.062 123.815,20.559C123.589,21.055 123.243,21.445 122.779,21.729C122.314,22.012 121.722,22.154 121.004,22.154L119.284,22.154L119.284,15.554ZM120.35,16.503L120.35,21.204L120.912,21.204C121.395,21.204 121.792,21.103 122.102,20.901C122.413,20.699 122.643,20.422 122.794,20.068C122.945,19.715 123.021,19.312 123.023,18.859C123.025,18.404 122.951,18 122.802,17.645C122.653,17.291 122.422,17.012 122.109,16.808C121.796,16.605 121.397,16.503 120.912,16.503L120.35,16.503Z"/>
        </g>
    </g>
</svg>
